M48
; DRILL file {KiCad 7.0.7-7.0.7~ubuntu22.04.1} date St 13. září 2023, 14:17:50
; FORMAT={3:3/ absolute / metric / suppress leading zeros}
; #@! TF.CreationDate,2023-09-13T14:17:50+02:00
; #@! TF.GenerationSoftware,Kicad,Pcbnew,7.0.7-7.0.7~ubuntu22.04.1
; #@! TF.FileFunction,MixedPlating,1,2
FMAT,2
METRIC,TZ
; #@! TA.AperFunction,Plated,PTH,ComponentDrill
T1C0.762
; #@! TA.AperFunction,Plated,PTH,ViaDrill
T2C0.800
; #@! TA.AperFunction,Plated,PTH,ComponentDrill
T3C0.800
; #@! TA.AperFunction,Plated,PTH,ComponentDrill
T4C0.890
; #@! TA.AperFunction,Plated,PTH,ComponentDrill
T5C0.900
; #@! TA.AperFunction,Plated,PTH,ComponentDrill
T6C1.000
; #@! TA.AperFunction,Plated,PTH,ComponentDrill
T7C1.100
; #@! TA.AperFunction,Plated,PTH,ComponentDrill
T8C1.190
; #@! TA.AperFunction,Plated,PTH,ComponentDrill
T9C1.300
; #@! TA.AperFunction,Plated,PTH,ComponentDrill
T10C1.600
; #@! TA.AperFunction,NonPlated,NPTH,ComponentDrill
T11C3.200
; #@! TA.AperFunction,NonPlated,NPTH,ComponentDrill
T12C3.250
%
G90
G05
T1
X34290Y57150
X34290Y54610
X34290Y52070
X34290Y49530
X34290Y46990
X34290Y44450
X34290Y41910
X34290Y39370
X34290Y36830
X34290Y34290
X34290Y31750
X34290Y29210
X34290Y26670
X34290Y24130
X34290Y21590
X34290Y19050
X34290Y16510
X34290Y13970
X34290Y11430
X34290Y8890
X49530Y57150
X49530Y54610
X49530Y52070
X49530Y49530
X49530Y46990
X49530Y44450
X49530Y41910
X49530Y39370
X49530Y36830
X49530Y34290
X49530Y31750
X49530Y29210
X49530Y26670
X49530Y24130
X49530Y21590
X49530Y19050
X49530Y16510
X49530Y13970
X49530Y11430
X49530Y8890
T2
X21590Y5080
X30480Y58700
X30480Y38100
X30480Y35560
X30480Y11430
X31750Y40640
X31750Y8890
X36830Y52070
X39370Y17780
X39370Y10160
X44450Y52070
X44450Y49530
X44450Y24130
X46990Y44450
X46990Y20320
X49530Y5080
X58420Y57150
X58420Y22568
X58420Y20320
X72390Y3810
T3
X60960Y52070
X60960Y49530
X60960Y46990
X60960Y44450
X60960Y41910
X60960Y39370
X68580Y52070
X68580Y49530
X68580Y46990
X68580Y44450
X68580Y41910
X68580Y39370
X75067Y3810
X80067Y3810
T4
X69745Y22860
X69745Y20320
X69745Y17780
X69745Y15240
X72285Y21590
X72285Y19050
X72285Y16510
X72285Y13970
T5
X17780Y57150
X17780Y52070
X20320Y57150
X20320Y52070
T6
X10160Y46990
X10160Y44450
X10160Y41910
X10160Y39370
X10160Y36830
X10160Y34290
X27940Y57150
X27940Y54610
X27940Y52070
X27940Y49530
X27940Y46990
X27940Y44450
X27940Y41910
X27940Y39370
X27940Y36830
X27940Y34290
X27940Y31750
X27940Y29210
X27940Y26670
X27940Y24130
X27940Y21590
X27940Y19050
X27940Y16510
X27940Y13970
X27940Y11430
X27940Y8890
X55880Y57150
X55880Y54610
X55880Y52070
X55880Y49530
X55880Y46990
X55880Y44450
X55880Y41910
X55880Y39370
X55880Y36830
X55880Y34290
X55880Y31750
X55880Y29210
X55880Y26670
X55880Y24130
X55880Y21590
X55880Y19050
X55880Y16510
X55880Y13970
X55880Y11430
X55880Y8890
X64770Y26670
X64770Y24130
X64770Y21590
X64770Y19050
X64770Y16510
X64770Y13970
X64770Y11430
X64770Y8890
T7
X10160Y57150
X10160Y50650
X14660Y57150
X14660Y50650
T8
X21590Y36830
X21590Y34290
X21590Y31750
X21590Y29210
X76200Y57150
X76200Y54610
X78740Y49530
X78740Y46990
X78740Y44450
X86360Y49530
X86360Y46990
X86360Y44450
T9
X13970Y23810
X13970Y3810
T10
X75585Y26160
X75585Y10670
T11
X3810Y57150
X3810Y3810
X86360Y57150
X86360Y3810
T12
X78635Y24130
X78635Y12700
T0
M30
