G04 #@! TF.GenerationSoftware,KiCad,Pcbnew,7.0.7-7.0.7~ubuntu22.04.1*
G04 #@! TF.CreationDate,2023-09-13T14:17:37+02:00*
G04 #@! TF.ProjectId,electricity-meter,656c6563-7472-4696-9369-74792d6d6574,rev?*
G04 #@! TF.SameCoordinates,PX791ddc0PY791ddc0*
G04 #@! TF.FileFunction,Copper,L2,Bot*
G04 #@! TF.FilePolarity,Positive*
%FSLAX46Y46*%
G04 Gerber Fmt 4.6, Leading zero omitted, Abs format (unit mm)*
G04 Created by KiCad (PCBNEW 7.0.7-7.0.7~ubuntu22.04.1) date 2023-09-13 14:17:37*
%MOMM*%
%LPD*%
G01*
G04 APERTURE LIST*
G04 Aperture macros list*
%AMRoundRect*
0 Rectangle with rounded corners*
0 $1 Rounding radius*
0 $2 $3 $4 $5 $6 $7 $8 $9 X,Y pos of 4 corners*
0 Add a 4 corners polygon primitive as box body*
4,1,4,$2,$3,$4,$5,$6,$7,$8,$9,$2,$3,0*
0 Add four circle primitives for the rounded corners*
1,1,$1+$1,$2,$3*
1,1,$1+$1,$4,$5*
1,1,$1+$1,$6,$7*
1,1,$1+$1,$8,$9*
0 Add four rect primitives between the rounded corners*
20,1,$1+$1,$2,$3,$4,$5,0*
20,1,$1+$1,$4,$5,$6,$7,0*
20,1,$1+$1,$6,$7,$8,$9,0*
20,1,$1+$1,$8,$9,$2,$3,0*%
G04 Aperture macros list end*
G04 #@! TA.AperFunction,ComponentPad*
%ADD10R,1.800000X1.800000*%
G04 #@! TD*
G04 #@! TA.AperFunction,ComponentPad*
%ADD11C,1.800000*%
G04 #@! TD*
G04 #@! TA.AperFunction,ComponentPad*
%ADD12RoundRect,0.250000X-0.845000X0.620000X-0.845000X-0.620000X0.845000X-0.620000X0.845000X0.620000X0*%
G04 #@! TD*
G04 #@! TA.AperFunction,ComponentPad*
%ADD13O,2.190000X1.740000*%
G04 #@! TD*
G04 #@! TA.AperFunction,ComponentPad*
%ADD14C,1.524000*%
G04 #@! TD*
G04 #@! TA.AperFunction,ComponentPad*
%ADD15R,1.700000X1.700000*%
G04 #@! TD*
G04 #@! TA.AperFunction,ComponentPad*
%ADD16O,1.700000X1.700000*%
G04 #@! TD*
G04 #@! TA.AperFunction,ComponentPad*
%ADD17R,1.600000X1.600000*%
G04 #@! TD*
G04 #@! TA.AperFunction,ComponentPad*
%ADD18C,1.600000*%
G04 #@! TD*
G04 #@! TA.AperFunction,ComponentPad*
%ADD19O,1.600000X1.600000*%
G04 #@! TD*
G04 #@! TA.AperFunction,ComponentPad*
%ADD20RoundRect,0.250000X0.845000X-0.620000X0.845000X0.620000X-0.845000X0.620000X-0.845000X-0.620000X0*%
G04 #@! TD*
G04 #@! TA.AperFunction,ComponentPad*
%ADD21C,2.000000*%
G04 #@! TD*
G04 #@! TA.AperFunction,ComponentPad*
%ADD22R,2.100000X2.100000*%
G04 #@! TD*
G04 #@! TA.AperFunction,ComponentPad*
%ADD23C,2.100000*%
G04 #@! TD*
G04 #@! TA.AperFunction,ComponentPad*
%ADD24C,3.000000*%
G04 #@! TD*
G04 #@! TA.AperFunction,SMDPad,CuDef*
%ADD25RoundRect,0.250000X-0.400000X-0.625000X0.400000X-0.625000X0.400000X0.625000X-0.400000X0.625000X0*%
G04 #@! TD*
G04 #@! TA.AperFunction,SMDPad,CuDef*
%ADD26RoundRect,0.250000X-1.500000X-0.650000X1.500000X-0.650000X1.500000X0.650000X-1.500000X0.650000X0*%
G04 #@! TD*
G04 #@! TA.AperFunction,SMDPad,CuDef*
%ADD27RoundRect,0.150000X-0.200000X0.150000X-0.200000X-0.150000X0.200000X-0.150000X0.200000X0.150000X0*%
G04 #@! TD*
G04 #@! TA.AperFunction,SMDPad,CuDef*
%ADD28RoundRect,0.250000X0.625000X-0.400000X0.625000X0.400000X-0.625000X0.400000X-0.625000X-0.400000X0*%
G04 #@! TD*
G04 #@! TA.AperFunction,SMDPad,CuDef*
%ADD29RoundRect,0.225000X-0.375000X0.225000X-0.375000X-0.225000X0.375000X-0.225000X0.375000X0.225000X0*%
G04 #@! TD*
G04 #@! TA.AperFunction,SMDPad,CuDef*
%ADD30RoundRect,0.250000X0.400000X0.625000X-0.400000X0.625000X-0.400000X-0.625000X0.400000X-0.625000X0*%
G04 #@! TD*
G04 #@! TA.AperFunction,SMDPad,CuDef*
%ADD31RoundRect,0.250000X0.650000X-0.412500X0.650000X0.412500X-0.650000X0.412500X-0.650000X-0.412500X0*%
G04 #@! TD*
G04 #@! TA.AperFunction,SMDPad,CuDef*
%ADD32RoundRect,0.250000X-0.625000X0.400000X-0.625000X-0.400000X0.625000X-0.400000X0.625000X0.400000X0*%
G04 #@! TD*
G04 #@! TA.AperFunction,SMDPad,CuDef*
%ADD33RoundRect,0.225000X0.225000X0.375000X-0.225000X0.375000X-0.225000X-0.375000X0.225000X-0.375000X0*%
G04 #@! TD*
G04 #@! TA.AperFunction,SMDPad,CuDef*
%ADD34RoundRect,0.250000X-0.412500X-0.650000X0.412500X-0.650000X0.412500X0.650000X-0.412500X0.650000X0*%
G04 #@! TD*
G04 #@! TA.AperFunction,SMDPad,CuDef*
%ADD35RoundRect,0.150000X0.150000X-0.587500X0.150000X0.587500X-0.150000X0.587500X-0.150000X-0.587500X0*%
G04 #@! TD*
G04 #@! TA.AperFunction,SMDPad,CuDef*
%ADD36R,1.000000X1.500000*%
G04 #@! TD*
G04 #@! TA.AperFunction,SMDPad,CuDef*
%ADD37RoundRect,0.250000X1.500000X0.650000X-1.500000X0.650000X-1.500000X-0.650000X1.500000X-0.650000X0*%
G04 #@! TD*
G04 #@! TA.AperFunction,SMDPad,CuDef*
%ADD38R,1.500000X2.000000*%
G04 #@! TD*
G04 #@! TA.AperFunction,SMDPad,CuDef*
%ADD39R,3.800000X2.000000*%
G04 #@! TD*
G04 #@! TA.AperFunction,SMDPad,CuDef*
%ADD40RoundRect,0.150000X0.150000X0.200000X-0.150000X0.200000X-0.150000X-0.200000X0.150000X-0.200000X0*%
G04 #@! TD*
G04 #@! TA.AperFunction,SMDPad,CuDef*
%ADD41R,1.500000X1.000000*%
G04 #@! TD*
G04 #@! TA.AperFunction,SMDPad,CuDef*
%ADD42RoundRect,0.150000X-0.150000X0.725000X-0.150000X-0.725000X0.150000X-0.725000X0.150000X0.725000X0*%
G04 #@! TD*
G04 #@! TA.AperFunction,SMDPad,CuDef*
%ADD43RoundRect,0.150000X-0.875000X-0.150000X0.875000X-0.150000X0.875000X0.150000X-0.875000X0.150000X0*%
G04 #@! TD*
G04 #@! TA.AperFunction,SMDPad,CuDef*
%ADD44RoundRect,0.150000X-0.587500X-0.150000X0.587500X-0.150000X0.587500X0.150000X-0.587500X0.150000X0*%
G04 #@! TD*
G04 #@! TA.AperFunction,SMDPad,CuDef*
%ADD45RoundRect,0.250001X0.462499X0.624999X-0.462499X0.624999X-0.462499X-0.624999X0.462499X-0.624999X0*%
G04 #@! TD*
G04 #@! TA.AperFunction,SMDPad,CuDef*
%ADD46RoundRect,0.250000X-0.650000X0.412500X-0.650000X-0.412500X0.650000X-0.412500X0.650000X0.412500X0*%
G04 #@! TD*
G04 #@! TA.AperFunction,SMDPad,CuDef*
%ADD47RoundRect,0.150000X-0.150000X0.675000X-0.150000X-0.675000X0.150000X-0.675000X0.150000X0.675000X0*%
G04 #@! TD*
G04 #@! TA.AperFunction,SMDPad,CuDef*
%ADD48R,1.400000X0.400000*%
G04 #@! TD*
G04 #@! TA.AperFunction,SMDPad,CuDef*
%ADD49R,1.900000X2.300000*%
G04 #@! TD*
G04 #@! TA.AperFunction,SMDPad,CuDef*
%ADD50R,1.900000X1.800000*%
G04 #@! TD*
G04 #@! TA.AperFunction,ViaPad*
%ADD51C,1.300000*%
G04 #@! TD*
G04 #@! TA.AperFunction,Conductor*
%ADD52C,1.000000*%
G04 #@! TD*
G04 #@! TA.AperFunction,Conductor*
%ADD53C,0.800000*%
G04 #@! TD*
G04 #@! TA.AperFunction,Conductor*
%ADD54C,1.500000*%
G04 #@! TD*
G04 APERTURE END LIST*
G04 #@! TA.AperFunction,EtchedComponent*
G04 #@! TO.C,JP5*
G36*
X40240000Y4780000D02*
G01*
X39740000Y4780000D01*
X39740000Y5380000D01*
X40240000Y5380000D01*
X40240000Y4780000D01*
G37*
G04 #@! TD.AperFunction*
G04 #@! TA.AperFunction,EtchedComponent*
G04 #@! TO.C,JP2*
G36*
X14270000Y6720000D02*
G01*
X13670000Y6720000D01*
X13670000Y7220000D01*
X14270000Y7220000D01*
X14270000Y6720000D01*
G37*
G04 #@! TD.AperFunction*
G04 #@! TA.AperFunction,EtchedComponent*
G04 #@! TO.C,JP1*
G36*
X16810000Y6750000D02*
G01*
X16210000Y6750000D01*
X16210000Y7250000D01*
X16810000Y7250000D01*
X16810000Y6750000D01*
G37*
G04 #@! TD.AperFunction*
G04 #@! TA.AperFunction,EtchedComponent*
G04 #@! TO.C,JP4*
G36*
X40240000Y7320000D02*
G01*
X39740000Y7320000D01*
X39740000Y7920000D01*
X40240000Y7920000D01*
X40240000Y7320000D01*
G37*
G04 #@! TD.AperFunction*
G04 #@! TD*
D10*
G04 #@! TO.P,D11,1,K*
G04 #@! TO.N,Net-(D11-K)*
X20320000Y52070000D03*
D11*
G04 #@! TO.P,D11,2,A*
G04 #@! TO.N,+3V3*
X17780000Y52070000D03*
G04 #@! TD*
D12*
G04 #@! TO.P,J9,1,Pin_1*
G04 #@! TO.N,GND*
X78740000Y49530000D03*
D13*
G04 #@! TO.P,J9,2,Pin_2*
G04 #@! TO.N,Net-(D15-K)*
X78740000Y46990000D03*
G04 #@! TO.P,J9,3,Pin_3*
G04 #@! TO.N,Net-(D14-K)*
X78740000Y44450000D03*
G04 #@! TD*
D14*
G04 #@! TO.P,U2,3V3,3V3*
G04 #@! TO.N,+3V3*
X34290000Y8890000D03*
X49530000Y52070000D03*
G04 #@! TO.P,U2,5V,5V*
G04 #@! TO.N,/5V_STM*
X34290000Y13970000D03*
G04 #@! TO.P,U2,GND,GND*
G04 #@! TO.N,GND*
X34290000Y11430000D03*
X49530000Y57150000D03*
X49530000Y54610000D03*
G04 #@! TO.P,U2,NRST,NRST*
G04 #@! TO.N,/NRST*
X49530000Y49530000D03*
G04 #@! TO.P,U2,PA0,PA0*
G04 #@! TO.N,/PA0*
X49530000Y19050000D03*
G04 #@! TO.P,U2,PA1,PA1*
G04 #@! TO.N,/MODBUS_DE*
X49530000Y21590000D03*
G04 #@! TO.P,U2,PA2,PA2*
G04 #@! TO.N,/PA2*
X49530000Y24130000D03*
G04 #@! TO.P,U2,PA3,PA3*
G04 #@! TO.N,/ONEWIRE*
X49530000Y26670000D03*
G04 #@! TO.P,U2,PA4,PA4*
G04 #@! TO.N,/PA4*
X49530000Y29210000D03*
G04 #@! TO.P,U2,PA5,PA5*
G04 #@! TO.N,/PA5*
X49530000Y31750000D03*
G04 #@! TO.P,U2,PA6,PA6*
G04 #@! TO.N,/MISO*
X49530000Y34290000D03*
G04 #@! TO.P,U2,PA7,PA7*
G04 #@! TO.N,/MOSI*
X49530000Y36830000D03*
G04 #@! TO.P,U2,PA8,PA8*
G04 #@! TO.N,/PA8*
X34290000Y46990000D03*
G04 #@! TO.P,U2,PA9,PA9*
G04 #@! TO.N,/PA9*
X34290000Y44450000D03*
G04 #@! TO.P,U2,PA10,PA10*
G04 #@! TO.N,/PA10*
X34290000Y41910000D03*
G04 #@! TO.P,U2,PA11,PA11*
G04 #@! TO.N,unconnected-(U2-PadPA11)*
X34290000Y39370000D03*
G04 #@! TO.P,U2,PA12,PA12*
G04 #@! TO.N,unconnected-(U2-PadPA12)*
X34290000Y36830000D03*
G04 #@! TO.P,U2,PA15,PA15*
G04 #@! TO.N,/PA15*
X34290000Y34290000D03*
G04 #@! TO.P,U2,PB0,PB0*
G04 #@! TO.N,/PB0*
X49530000Y39370000D03*
G04 #@! TO.P,U2,PB1,PB1*
G04 #@! TO.N,/PB1*
X49530000Y41910000D03*
G04 #@! TO.P,U2,PB3,PB3*
G04 #@! TO.N,/DCF77_DATA*
X34290000Y31750000D03*
G04 #@! TO.P,U2,PB4,PB4*
G04 #@! TO.N,/DCF77_~{PON}*
X34290000Y29210000D03*
G04 #@! TO.P,U2,PB5,PB5*
G04 #@! TO.N,/PB5*
X34290000Y26670000D03*
G04 #@! TO.P,U2,PB6,PB6*
G04 #@! TO.N,/PB6*
X34290000Y24130000D03*
G04 #@! TO.P,U2,PB7,PB7*
G04 #@! TO.N,/PB7*
X34290000Y21590000D03*
G04 #@! TO.P,U2,PB8,PB8*
G04 #@! TO.N,/PB8*
X34290000Y19050000D03*
G04 #@! TO.P,U2,PB9,PB9*
G04 #@! TO.N,/PB9*
X34290000Y16510000D03*
G04 #@! TO.P,U2,PB10,PB10*
G04 #@! TO.N,/MODBUS_DI*
X49530000Y44450000D03*
G04 #@! TO.P,U2,PB11,PB11*
G04 #@! TO.N,/MODBUS_RO*
X49530000Y46990000D03*
G04 #@! TO.P,U2,PB12,PB12*
G04 #@! TO.N,/LED_STATUS*
X34290000Y57150000D03*
G04 #@! TO.P,U2,PB13,PB13*
G04 #@! TO.N,/LED_PULSE*
X34290000Y54610000D03*
G04 #@! TO.P,U2,PB14,PB14*
G04 #@! TO.N,/BTN_UMOUNT*
X34290000Y52070000D03*
G04 #@! TO.P,U2,PB15,PB15*
G04 #@! TO.N,/PB15*
X34290000Y49530000D03*
G04 #@! TO.P,U2,PC13,PC13*
G04 #@! TO.N,/PC13*
X49530000Y11430000D03*
G04 #@! TO.P,U2,PC14,PC14*
G04 #@! TO.N,unconnected-(U2-PadPC14)*
X49530000Y13970000D03*
G04 #@! TO.P,U2,PC15,PC15*
G04 #@! TO.N,unconnected-(U2-PadPC15)*
X49530000Y16510000D03*
G04 #@! TO.P,U2,VBAT,VBAT*
G04 #@! TO.N,/VBAT*
X49530000Y8890000D03*
G04 #@! TD*
D15*
G04 #@! TO.P,J3,1,GND*
G04 #@! TO.N,GND*
X10160000Y46990000D03*
D16*
G04 #@! TO.P,J3,2,CTS*
G04 #@! TO.N,unconnected-(J3-CTS-Pad2)*
X10160000Y44450000D03*
G04 #@! TO.P,J3,3,VCC*
G04 #@! TO.N,unconnected-(J3-VCC-Pad3)*
X10160000Y41910000D03*
G04 #@! TO.P,J3,4,TX*
G04 #@! TO.N,Net-(J3-TX)*
X10160000Y39370000D03*
G04 #@! TO.P,J3,5,RX*
G04 #@! TO.N,Net-(J3-RX)*
X10160000Y36830000D03*
G04 #@! TO.P,J3,6,DTR*
G04 #@! TO.N,unconnected-(J3-DTR-Pad6)*
X10160000Y34290000D03*
G04 #@! TD*
D12*
G04 #@! TO.P,J8,1,Pin_1*
G04 #@! TO.N,GND*
X86360000Y49530000D03*
D13*
G04 #@! TO.P,J8,2,Pin_2*
G04 #@! TO.N,Net-(D15-K)*
X86360000Y46990000D03*
G04 #@! TO.P,J8,3,Pin_3*
G04 #@! TO.N,Net-(D14-K)*
X86360000Y44450000D03*
G04 #@! TD*
D15*
G04 #@! TO.P,J6,1,Pin_1*
G04 #@! TO.N,Net-(J6-Pin_1)*
X64770000Y8890000D03*
D16*
G04 #@! TO.P,J6,2,Pin_2*
G04 #@! TO.N,Net-(J6-Pin_2)*
X64770000Y11430000D03*
G04 #@! TO.P,J6,3,Pin_3*
G04 #@! TO.N,Net-(J6-Pin_3)*
X64770000Y13970000D03*
G04 #@! TO.P,J6,4,Pin_4*
G04 #@! TO.N,/MODBUS_B*
X64770000Y16510000D03*
G04 #@! TO.P,J6,5,Pin_5*
G04 #@! TO.N,/MODBUS_A_NT*
X64770000Y19050000D03*
G04 #@! TO.P,J6,6,Pin_6*
G04 #@! TO.N,Net-(J6-Pin_6)*
X64770000Y21590000D03*
G04 #@! TO.P,J6,7,Pin_7*
G04 #@! TO.N,Net-(J6-Pin_7)*
X64770000Y24130000D03*
G04 #@! TO.P,J6,8,Pin_8*
G04 #@! TO.N,GND*
X64770000Y26670000D03*
G04 #@! TD*
D10*
G04 #@! TO.P,D12,1,K*
G04 #@! TO.N,Net-(D12-K)*
X20320000Y57150000D03*
D11*
G04 #@! TO.P,D12,2,A*
G04 #@! TO.N,+3V3*
X17780000Y57150000D03*
G04 #@! TD*
D17*
G04 #@! TO.P,C3,1*
G04 #@! TO.N,+5V*
X75067349Y3810000D03*
D18*
G04 #@! TO.P,C3,2*
G04 #@! TO.N,GND*
X80067349Y3810000D03*
G04 #@! TD*
D17*
G04 #@! TO.P,SW1,1*
G04 #@! TO.N,+3V3*
X68580000Y39370000D03*
D19*
G04 #@! TO.P,SW1,2*
X68580000Y41910000D03*
G04 #@! TO.P,SW1,3*
X68580000Y44450000D03*
G04 #@! TO.P,SW1,4*
X68580000Y46990000D03*
G04 #@! TO.P,SW1,5*
X68580000Y49530000D03*
G04 #@! TO.P,SW1,6*
X68580000Y52070000D03*
G04 #@! TO.P,SW1,7*
G04 #@! TO.N,Net-(R10-Pad1)*
X60960000Y52070000D03*
G04 #@! TO.P,SW1,8*
G04 #@! TO.N,Net-(R9-Pad1)*
X60960000Y49530000D03*
G04 #@! TO.P,SW1,9*
G04 #@! TO.N,Net-(R6-Pad1)*
X60960000Y46990000D03*
G04 #@! TO.P,SW1,10*
G04 #@! TO.N,Net-(R5-Pad1)*
X60960000Y44450000D03*
G04 #@! TO.P,SW1,11*
G04 #@! TO.N,/PB1*
X60960000Y41910000D03*
G04 #@! TO.P,SW1,12*
G04 #@! TO.N,/PB0*
X60960000Y39370000D03*
G04 #@! TD*
D15*
G04 #@! TO.P,J4,1,Pin_1*
G04 #@! TO.N,+3V3*
X27940000Y8890000D03*
D16*
G04 #@! TO.P,J4,2,Pin_2*
G04 #@! TO.N,GND*
X27940000Y11430000D03*
G04 #@! TO.P,J4,3,Pin_3*
G04 #@! TO.N,/5V_STM*
X27940000Y13970000D03*
G04 #@! TO.P,J4,4,Pin_4*
G04 #@! TO.N,/PB9*
X27940000Y16510000D03*
G04 #@! TO.P,J4,5,Pin_5*
G04 #@! TO.N,/PB8*
X27940000Y19050000D03*
G04 #@! TO.P,J4,6,Pin_6*
G04 #@! TO.N,/PB7*
X27940000Y21590000D03*
G04 #@! TO.P,J4,7,Pin_7*
G04 #@! TO.N,/PB6*
X27940000Y24130000D03*
G04 #@! TO.P,J4,8,Pin_8*
G04 #@! TO.N,/PB5*
X27940000Y26670000D03*
G04 #@! TO.P,J4,9,Pin_9*
G04 #@! TO.N,/DCF77_~{PON}*
X27940000Y29210000D03*
G04 #@! TO.P,J4,10,Pin_10*
G04 #@! TO.N,/DCF77_DATA*
X27940000Y31750000D03*
G04 #@! TO.P,J4,11,Pin_11*
G04 #@! TO.N,/PA15*
X27940000Y34290000D03*
G04 #@! TO.P,J4,12,Pin_12*
G04 #@! TO.N,GND*
X27940000Y36830000D03*
G04 #@! TO.P,J4,13,Pin_13*
G04 #@! TO.N,+3V3*
X27940000Y39370000D03*
G04 #@! TO.P,J4,14,Pin_14*
G04 #@! TO.N,/PA10*
X27940000Y41910000D03*
G04 #@! TO.P,J4,15,Pin_15*
G04 #@! TO.N,/PA9*
X27940000Y44450000D03*
G04 #@! TO.P,J4,16,Pin_16*
G04 #@! TO.N,/PA8*
X27940000Y46990000D03*
G04 #@! TO.P,J4,17,Pin_17*
G04 #@! TO.N,/PB15*
X27940000Y49530000D03*
G04 #@! TO.P,J4,18,Pin_18*
G04 #@! TO.N,/BTN_UMOUNT*
X27940000Y52070000D03*
G04 #@! TO.P,J4,19,Pin_19*
G04 #@! TO.N,/LED_PULSE*
X27940000Y54610000D03*
G04 #@! TO.P,J4,20,Pin_20*
G04 #@! TO.N,/LED_STATUS*
X27940000Y57150000D03*
G04 #@! TD*
D15*
G04 #@! TO.P,J1,1,Pin_1*
G04 #@! TO.N,/VBAT*
X55880000Y8890000D03*
D16*
G04 #@! TO.P,J1,2,Pin_2*
G04 #@! TO.N,/PC13*
X55880000Y11430000D03*
G04 #@! TO.P,J1,3,Pin_3*
G04 #@! TO.N,unconnected-(J1-Pin_3-Pad3)*
X55880000Y13970000D03*
G04 #@! TO.P,J1,4,Pin_4*
G04 #@! TO.N,unconnected-(J1-Pin_4-Pad4)*
X55880000Y16510000D03*
G04 #@! TO.P,J1,5,Pin_5*
G04 #@! TO.N,/PA0*
X55880000Y19050000D03*
G04 #@! TO.P,J1,6,Pin_6*
G04 #@! TO.N,/MODBUS_DE*
X55880000Y21590000D03*
G04 #@! TO.P,J1,7,Pin_7*
G04 #@! TO.N,/PA2*
X55880000Y24130000D03*
G04 #@! TO.P,J1,8,Pin_8*
G04 #@! TO.N,/ONEWIRE*
X55880000Y26670000D03*
G04 #@! TO.P,J1,9,Pin_9*
G04 #@! TO.N,/PA4*
X55880000Y29210000D03*
G04 #@! TO.P,J1,10,Pin_10*
G04 #@! TO.N,/PA5*
X55880000Y31750000D03*
G04 #@! TO.P,J1,11,Pin_11*
G04 #@! TO.N,/MISO*
X55880000Y34290000D03*
G04 #@! TO.P,J1,12,Pin_12*
G04 #@! TO.N,/MOSI*
X55880000Y36830000D03*
G04 #@! TO.P,J1,13,Pin_13*
G04 #@! TO.N,/PB0*
X55880000Y39370000D03*
G04 #@! TO.P,J1,14,Pin_14*
G04 #@! TO.N,/PB1*
X55880000Y41910000D03*
G04 #@! TO.P,J1,15,Pin_15*
G04 #@! TO.N,/MODBUS_DI*
X55880000Y44450000D03*
G04 #@! TO.P,J1,16,Pin_16*
G04 #@! TO.N,/MODBUS_RO*
X55880000Y46990000D03*
G04 #@! TO.P,J1,17,Pin_17*
G04 #@! TO.N,/NRST*
X55880000Y49530000D03*
G04 #@! TO.P,J1,18,Pin_18*
G04 #@! TO.N,+3V3*
X55880000Y52070000D03*
G04 #@! TO.P,J1,19,Pin_19*
G04 #@! TO.N,GND*
X55880000Y54610000D03*
G04 #@! TO.P,J1,20,Pin_20*
X55880000Y57150000D03*
G04 #@! TD*
D12*
G04 #@! TO.P,J2,1,Pin_1*
G04 #@! TO.N,GND*
X76200000Y57150000D03*
D13*
G04 #@! TO.P,J2,2,Pin_2*
G04 #@! TO.N,Net-(D1-K)*
X76200000Y54610000D03*
G04 #@! TD*
D20*
G04 #@! TO.P,U4,1,~{PON}*
G04 #@! TO.N,/DCF77_~{PON}*
X21590000Y29210000D03*
D13*
G04 #@! TO.P,U4,2,OUT*
G04 #@! TO.N,/DCF77_DATA*
X21590000Y31750000D03*
G04 #@! TO.P,U4,3,GND*
G04 #@! TO.N,GND*
X21590000Y34290000D03*
G04 #@! TO.P,U4,4,VDD*
G04 #@! TO.N,+3V3*
X21590000Y36830000D03*
G04 #@! TD*
D21*
G04 #@! TO.P,SW2,1,1*
G04 #@! TO.N,Net-(R15-Pad2)*
X14660000Y57150000D03*
X14660000Y50650000D03*
G04 #@! TO.P,SW2,2,2*
G04 #@! TO.N,GND*
X10160000Y57150000D03*
X10160000Y50650000D03*
G04 #@! TD*
D22*
G04 #@! TO.P,BT1,1,+*
G04 #@! TO.N,Net-(BT1-+)*
X13970000Y3810000D03*
D23*
G04 #@! TO.P,BT1,2,-*
G04 #@! TO.N,GND*
X13970000Y23810000D03*
G04 #@! TD*
D10*
G04 #@! TO.P,J7,1*
G04 #@! TO.N,Net-(J6-Pin_1)*
X72285000Y13970000D03*
D11*
G04 #@! TO.P,J7,2*
G04 #@! TO.N,Net-(J6-Pin_2)*
X69745000Y15240000D03*
G04 #@! TO.P,J7,3*
G04 #@! TO.N,Net-(J6-Pin_3)*
X72285000Y16510000D03*
G04 #@! TO.P,J7,4*
G04 #@! TO.N,/MODBUS_B*
X69745000Y17780000D03*
G04 #@! TO.P,J7,5*
G04 #@! TO.N,/MODBUS_A*
X72285000Y19050000D03*
G04 #@! TO.P,J7,6*
G04 #@! TO.N,Net-(J6-Pin_6)*
X69745000Y20320000D03*
G04 #@! TO.P,J7,7*
G04 #@! TO.N,/MODBUS_VP*
X72285000Y21590000D03*
G04 #@! TO.P,J7,8*
G04 #@! TO.N,GND*
X69745000Y22860000D03*
D24*
G04 #@! TO.P,J7,SH*
G04 #@! TO.N,Earth*
X75585000Y10670000D03*
X75585000Y26160000D03*
G04 #@! TD*
D25*
G04 #@! TO.P,NT5,1,1*
G04 #@! TO.N,/MODBUS_A_NT*
X58775000Y5080000D03*
G04 #@! TO.P,NT5,2,2*
G04 #@! TO.N,/MODBUS_A*
X61875000Y5080000D03*
G04 #@! TD*
D26*
G04 #@! TO.P,D9,1,K*
G04 #@! TO.N,/MODBUS_VP*
X73700000Y29845000D03*
G04 #@! TO.P,D9,2,A*
G04 #@! TO.N,+5V*
X78700000Y29845000D03*
G04 #@! TD*
D27*
G04 #@! TO.P,D15,1,K*
G04 #@! TO.N,Net-(D15-K)*
X83820000Y47560000D03*
G04 #@! TO.P,D15,2,A*
G04 #@! TO.N,GND*
X83820000Y48960000D03*
G04 #@! TD*
D25*
G04 #@! TO.P,R23,1*
G04 #@! TO.N,/MODBUS_B*
X42900000Y5080000D03*
G04 #@! TO.P,R23,2*
G04 #@! TO.N,/MODBUS_A_NT*
X46000000Y5080000D03*
G04 #@! TD*
D28*
G04 #@! TO.P,NT3,1,1*
G04 #@! TO.N,/MISO*
X47498000Y35280000D03*
G04 #@! TO.P,NT3,2,2*
G04 #@! TO.N,Net-(U5-SO{slash}SIO1)*
X47498000Y38380000D03*
G04 #@! TD*
D27*
G04 #@! TO.P,D1,1,K*
G04 #@! TO.N,Net-(D1-K)*
X78740000Y55180000D03*
G04 #@! TO.P,D1,2,A*
G04 #@! TO.N,GND*
X78740000Y56580000D03*
G04 #@! TD*
D29*
G04 #@! TO.P,D2,1,K*
G04 #@! TO.N,Net-(D2-K)*
X17780000Y43560000D03*
G04 #@! TO.P,D2,2,A*
G04 #@! TO.N,GND*
X17780000Y40260000D03*
G04 #@! TD*
D30*
G04 #@! TO.P,R26,1*
G04 #@! TO.N,+3V3*
X70130000Y34290000D03*
G04 #@! TO.P,R26,2*
G04 #@! TO.N,/ONEWIRE*
X67030000Y34290000D03*
G04 #@! TD*
G04 #@! TO.P,R13,1*
G04 #@! TO.N,+3V3*
X39650000Y24130000D03*
G04 #@! TO.P,R13,2*
G04 #@! TO.N,/PB6*
X36550000Y24130000D03*
G04 #@! TD*
D25*
G04 #@! TO.P,R6,1*
G04 #@! TO.N,Net-(R6-Pad1)*
X63220000Y46990000D03*
G04 #@! TO.P,R6,2*
G04 #@! TO.N,Net-(D6-A)*
X66320000Y46990000D03*
G04 #@! TD*
G04 #@! TO.P,R19,1*
G04 #@! TO.N,Net-(D12-K)*
X22580000Y57150000D03*
G04 #@! TO.P,R19,2*
G04 #@! TO.N,/LED_STATUS*
X25680000Y57150000D03*
G04 #@! TD*
G04 #@! TO.P,R4,1*
G04 #@! TO.N,Net-(J3-TX)*
X12420000Y41910000D03*
G04 #@! TO.P,R4,2*
G04 #@! TO.N,Net-(D3-K)*
X15520000Y41910000D03*
G04 #@! TD*
D31*
G04 #@! TO.P,C15,1*
G04 #@! TO.N,Net-(D14-K)*
X81280000Y45427500D03*
G04 #@! TO.P,C15,2*
G04 #@! TO.N,GND*
X81280000Y48552500D03*
G04 #@! TD*
D32*
G04 #@! TO.P,R21,1*
G04 #@! TO.N,Net-(U6-B)*
X43180000Y10440000D03*
G04 #@! TO.P,R21,2*
G04 #@! TO.N,/MODBUS_B*
X43180000Y7340000D03*
G04 #@! TD*
D25*
G04 #@! TO.P,R7,1*
G04 #@! TO.N,Net-(D2-K)*
X22580000Y44450000D03*
G04 #@! TO.P,R7,2*
G04 #@! TO.N,/PA9*
X25680000Y44450000D03*
G04 #@! TD*
D33*
G04 #@! TO.P,D4,1,K*
G04 #@! TO.N,+3V3*
X25780000Y46990000D03*
G04 #@! TO.P,D4,2,A*
G04 #@! TO.N,Net-(D2-K)*
X22480000Y46990000D03*
G04 #@! TD*
D34*
G04 #@! TO.P,C12,1*
G04 #@! TO.N,+3V3*
X41617500Y44450000D03*
G04 #@! TO.P,C12,2*
G04 #@! TO.N,GND*
X44742500Y44450000D03*
G04 #@! TD*
D30*
G04 #@! TO.P,R25,1*
G04 #@! TO.N,Net-(JP5-A)*
X33300000Y6350000D03*
G04 #@! TO.P,R25,2*
G04 #@! TO.N,GND*
X30200000Y6350000D03*
G04 #@! TD*
G04 #@! TO.P,R2,1*
G04 #@! TO.N,+3V3*
X66320000Y41910000D03*
G04 #@! TO.P,R2,2*
G04 #@! TO.N,Net-(D6-A)*
X63220000Y41910000D03*
G04 #@! TD*
D25*
G04 #@! TO.P,R10,1*
G04 #@! TO.N,Net-(R10-Pad1)*
X63220000Y52070000D03*
G04 #@! TO.P,R10,2*
G04 #@! TO.N,Net-(D6-A)*
X66320000Y52070000D03*
G04 #@! TD*
D34*
G04 #@! TO.P,C9,1*
G04 #@! TO.N,+3V3*
X84797500Y40640000D03*
G04 #@! TO.P,C9,2*
G04 #@! TO.N,GND*
X87922500Y40640000D03*
G04 #@! TD*
D31*
G04 #@! TO.P,C7,1*
G04 #@! TO.N,+3V3*
X46990000Y51777500D03*
G04 #@! TO.P,C7,2*
G04 #@! TO.N,GND*
X46990000Y54902500D03*
G04 #@! TD*
D25*
G04 #@! TO.P,R3,1*
G04 #@! TO.N,Net-(J3-RX)*
X12420000Y44450000D03*
G04 #@! TO.P,R3,2*
G04 #@! TO.N,Net-(D2-K)*
X15520000Y44450000D03*
G04 #@! TD*
D32*
G04 #@! TO.P,R11,1*
G04 #@! TO.N,Net-(D6-A)*
X59690000Y35840000D03*
G04 #@! TO.P,R11,2*
G04 #@! TO.N,/PA2*
X59690000Y32740000D03*
G04 #@! TD*
D30*
G04 #@! TO.P,R17,1*
G04 #@! TO.N,/BTN_UMOUNT*
X25680000Y52070000D03*
G04 #@! TO.P,R17,2*
G04 #@! TO.N,Net-(R15-Pad2)*
X22580000Y52070000D03*
G04 #@! TD*
D35*
G04 #@! TO.P,Q1,1,G*
G04 #@! TO.N,+3V3*
X75880000Y38432500D03*
G04 #@! TO.P,Q1,2,S*
G04 #@! TO.N,Net-(Q1-S)*
X73980000Y38432500D03*
G04 #@! TO.P,Q1,3,D*
G04 #@! TO.N,/onewire/ONEWIRE_5V*
X74930000Y40307500D03*
G04 #@! TD*
D36*
G04 #@! TO.P,JP5,1,A*
G04 #@! TO.N,Net-(JP5-A)*
X39340000Y5080000D03*
G04 #@! TO.P,JP5,2,B*
G04 #@! TO.N,/MODBUS_B*
X40640000Y5080000D03*
G04 #@! TD*
D30*
G04 #@! TO.P,R20,1*
G04 #@! TO.N,/MODBUS_DE*
X46000000Y26670000D03*
G04 #@! TO.P,R20,2*
G04 #@! TO.N,GND*
X42900000Y26670000D03*
G04 #@! TD*
D34*
G04 #@! TO.P,C1,1*
G04 #@! TO.N,/PA2*
X59397500Y25400000D03*
G04 #@! TO.P,C1,2*
G04 #@! TO.N,GND*
X62522500Y25400000D03*
G04 #@! TD*
D29*
G04 #@! TO.P,D3,1,K*
G04 #@! TO.N,Net-(D3-K)*
X20320000Y41910000D03*
G04 #@! TO.P,D3,2,A*
G04 #@! TO.N,GND*
X20320000Y38610000D03*
G04 #@! TD*
D37*
G04 #@! TO.P,D10,1,K*
G04 #@! TO.N,/MODBUS_VP*
X68540000Y31115000D03*
G04 #@! TO.P,D10,2,A*
G04 #@! TO.N,GND*
X63540000Y31115000D03*
G04 #@! TD*
D25*
G04 #@! TO.P,R9,1*
G04 #@! TO.N,Net-(R9-Pad1)*
X63220000Y49530000D03*
G04 #@! TO.P,R9,2*
G04 #@! TO.N,Net-(D6-A)*
X66320000Y49530000D03*
G04 #@! TD*
G04 #@! TO.P,R5,1*
G04 #@! TO.N,Net-(R5-Pad1)*
X63220000Y44450000D03*
G04 #@! TO.P,R5,2*
G04 #@! TO.N,Net-(D6-A)*
X66320000Y44450000D03*
G04 #@! TD*
D33*
G04 #@! TO.P,D14,1,K*
G04 #@! TO.N,Net-(D14-K)*
X82550000Y41910000D03*
G04 #@! TO.P,D14,2,A*
G04 #@! TO.N,/onewire/ONEWIRE_5V*
X79250000Y41910000D03*
G04 #@! TD*
D31*
G04 #@! TO.P,C14,1*
G04 #@! TO.N,+3V3*
X39370000Y12407500D03*
G04 #@! TO.P,C14,2*
G04 #@! TO.N,GND*
X39370000Y15532500D03*
G04 #@! TD*
D32*
G04 #@! TO.P,R27,1*
G04 #@! TO.N,Net-(D14-K)*
X76200000Y46000000D03*
G04 #@! TO.P,R27,2*
G04 #@! TO.N,/onewire/ONEWIRE_5V*
X76200000Y42900000D03*
G04 #@! TD*
D28*
G04 #@! TO.P,NT4,1,1*
G04 #@! TO.N,Net-(J6-Pin_7)*
X67310000Y25120000D03*
G04 #@! TO.P,NT4,2,2*
G04 #@! TO.N,/MODBUS_VP*
X67310000Y28220000D03*
G04 #@! TD*
D25*
G04 #@! TO.P,R18,1*
G04 #@! TO.N,Net-(D11-K)*
X22580000Y54610000D03*
G04 #@! TO.P,R18,2*
G04 #@! TO.N,/LED_PULSE*
X25680000Y54610000D03*
G04 #@! TD*
D32*
G04 #@! TO.P,R12,1*
G04 #@! TO.N,+3V3*
X19050000Y35840000D03*
G04 #@! TO.P,R12,2*
G04 #@! TO.N,/DCF77_~{PON}*
X19050000Y32740000D03*
G04 #@! TD*
D34*
G04 #@! TO.P,C6,1*
G04 #@! TO.N,+3V3*
X84797500Y38100000D03*
G04 #@! TO.P,C6,2*
G04 #@! TO.N,GND*
X87922500Y38100000D03*
G04 #@! TD*
D38*
G04 #@! TO.P,U3,1,GND*
G04 #@! TO.N,GND*
X87390000Y28600000D03*
G04 #@! TO.P,U3,2,VO*
G04 #@! TO.N,+3V3*
X85090000Y28600000D03*
D39*
X85090000Y34900000D03*
D38*
G04 #@! TO.P,U3,3,VI*
G04 #@! TO.N,+5V*
X82790000Y28600000D03*
G04 #@! TD*
D30*
G04 #@! TO.P,R1,1*
G04 #@! TO.N,Net-(D1-K)*
X70130000Y54610000D03*
G04 #@! TO.P,R1,2*
G04 #@! TO.N,Net-(D6-A)*
X67030000Y54610000D03*
G04 #@! TD*
D40*
G04 #@! TO.P,D7,1,K*
G04 #@! TO.N,Net-(D7-K)*
X82485000Y17145000D03*
G04 #@! TO.P,D7,2,A*
G04 #@! TO.N,GND*
X83885000Y17145000D03*
G04 #@! TD*
D31*
G04 #@! TO.P,C2,1*
G04 #@! TO.N,+3V3*
X52070000Y51777500D03*
G04 #@! TO.P,C2,2*
G04 #@! TO.N,GND*
X52070000Y54902500D03*
G04 #@! TD*
D41*
G04 #@! TO.P,JP2,1,A*
G04 #@! TO.N,Net-(BT1-+)*
X13970000Y6320000D03*
G04 #@! TO.P,JP2,2,B*
G04 #@! TO.N,Net-(JP2-B)*
X13970000Y7620000D03*
G04 #@! TD*
D42*
G04 #@! TO.P,U6,1,RO*
G04 #@! TO.N,/MODBUS_RO*
X42545000Y17815000D03*
G04 #@! TO.P,U6,2,~{RE}*
G04 #@! TO.N,/MODBUS_DE*
X43815000Y17815000D03*
G04 #@! TO.P,U6,3,DE*
X45085000Y17815000D03*
G04 #@! TO.P,U6,4,DI*
G04 #@! TO.N,/MODBUS_DI*
X46355000Y17815000D03*
G04 #@! TO.P,U6,5,GND*
G04 #@! TO.N,GND*
X46355000Y12665000D03*
G04 #@! TO.P,U6,6,A*
G04 #@! TO.N,Net-(U6-A)*
X45085000Y12665000D03*
G04 #@! TO.P,U6,7,B*
G04 #@! TO.N,Net-(U6-B)*
X43815000Y12665000D03*
G04 #@! TO.P,U6,8,VCC*
G04 #@! TO.N,+3V3*
X42545000Y12665000D03*
G04 #@! TD*
D25*
G04 #@! TO.P,NT6,1,1*
G04 #@! TO.N,/ONEWIRE*
X67030000Y36830000D03*
G04 #@! TO.P,NT6,2,2*
G04 #@! TO.N,Net-(Q1-S)*
X70130000Y36830000D03*
G04 #@! TD*
G04 #@! TO.P,JP3,1,A*
G04 #@! TO.N,GND*
X70205000Y24765000D03*
G04 #@! TO.P,JP3,2,B*
G04 #@! TO.N,Earth*
X73305000Y24765000D03*
G04 #@! TD*
D28*
G04 #@! TO.P,R28,1*
G04 #@! TO.N,/onewire/ONEWIRE_5V*
X73660000Y42900000D03*
G04 #@! TO.P,R28,2*
G04 #@! TO.N,Net-(D15-K)*
X73660000Y46000000D03*
G04 #@! TD*
D40*
G04 #@! TO.P,D16,1,K*
G04 #@! TO.N,Net-(D14-K)*
X85660000Y42545000D03*
G04 #@! TO.P,D16,2,A*
G04 #@! TO.N,GND*
X87060000Y42545000D03*
G04 #@! TD*
D43*
G04 #@! TO.P,U1,1,32KHZ*
G04 #@! TO.N,unconnected-(U1-32KHZ-Pad1)*
X6780000Y10795000D03*
G04 #@! TO.P,U1,2,VCC*
G04 #@! TO.N,+3V3*
X6780000Y12065000D03*
G04 #@! TO.P,U1,3,~{INT}/SQW*
G04 #@! TO.N,unconnected-(U1-~{INT}{slash}SQW-Pad3)*
X6780000Y13335000D03*
G04 #@! TO.P,U1,4,~{RST}*
G04 #@! TO.N,unconnected-(U1-~{RST}-Pad4)*
X6780000Y14605000D03*
G04 #@! TO.P,U1,5,GND*
G04 #@! TO.N,GND*
X6780000Y15875000D03*
G04 #@! TO.P,U1,6,GND*
X6780000Y17145000D03*
G04 #@! TO.P,U1,7,GND*
X6780000Y18415000D03*
G04 #@! TO.P,U1,8,GND*
X6780000Y19685000D03*
G04 #@! TO.P,U1,9,GND*
X16080000Y19685000D03*
G04 #@! TO.P,U1,10,GND*
X16080000Y18415000D03*
G04 #@! TO.P,U1,11,GND*
X16080000Y17145000D03*
G04 #@! TO.P,U1,12,GND*
X16080000Y15875000D03*
G04 #@! TO.P,U1,13,GND*
X16080000Y14605000D03*
G04 #@! TO.P,U1,14,VBAT*
G04 #@! TO.N,Net-(JP2-B)*
X16080000Y13335000D03*
G04 #@! TO.P,U1,15,SDA*
G04 #@! TO.N,/PB7*
X16080000Y12065000D03*
G04 #@! TO.P,U1,16,SCL*
G04 #@! TO.N,Net-(U1-SCL)*
X16080000Y10795000D03*
G04 #@! TD*
D32*
G04 #@! TO.P,NT1,1,1*
G04 #@! TO.N,/PB6*
X25400000Y23140000D03*
G04 #@! TO.P,NT1,2,2*
G04 #@! TO.N,Net-(U1-SCL)*
X25400000Y20040000D03*
G04 #@! TD*
D33*
G04 #@! TO.P,D5,1,K*
G04 #@! TO.N,+3V3*
X25780000Y39370000D03*
G04 #@! TO.P,D5,2,A*
G04 #@! TO.N,Net-(D3-K)*
X22480000Y39370000D03*
G04 #@! TD*
D44*
G04 #@! TO.P,D13,1,A1*
G04 #@! TO.N,/MODBUS_B*
X64770000Y2225000D03*
G04 #@! TO.P,D13,2,A2*
G04 #@! TO.N,/MODBUS_A*
X64770000Y4125000D03*
G04 #@! TO.P,D13,3,common*
G04 #@! TO.N,GND*
X66645000Y3175000D03*
G04 #@! TD*
D37*
G04 #@! TO.P,D8,1,K*
G04 #@! TO.N,+5V*
X78700000Y33655000D03*
G04 #@! TO.P,D8,2,A*
G04 #@! TO.N,+3V3*
X73700000Y33655000D03*
G04 #@! TD*
D41*
G04 #@! TO.P,JP1,1,A*
G04 #@! TO.N,Net-(BT1-+)*
X16510000Y6350000D03*
G04 #@! TO.P,JP1,2,B*
G04 #@! TO.N,/VBAT*
X16510000Y7650000D03*
G04 #@! TD*
D34*
G04 #@! TO.P,C10,1*
G04 #@! TO.N,/BTN_UMOUNT*
X36537500Y54610000D03*
G04 #@! TO.P,C10,2*
G04 #@! TO.N,GND*
X39662500Y54610000D03*
G04 #@! TD*
D32*
G04 #@! TO.P,R22,1*
G04 #@! TO.N,Net-(U6-A)*
X45720000Y10440000D03*
G04 #@! TO.P,R22,2*
G04 #@! TO.N,/MODBUS_A_NT*
X45720000Y7340000D03*
G04 #@! TD*
D45*
G04 #@! TO.P,F1,1*
G04 #@! TO.N,Net-(D7-K)*
X82767500Y19050000D03*
G04 #@! TO.P,F1,2*
G04 #@! TO.N,+5V*
X79792500Y19050000D03*
G04 #@! TD*
D28*
G04 #@! TO.P,NT2,1,1*
G04 #@! TO.N,/PA4*
X38735000Y31470000D03*
G04 #@! TO.P,NT2,2,2*
G04 #@! TO.N,Net-(U5-~{CS})*
X38735000Y34570000D03*
G04 #@! TD*
D36*
G04 #@! TO.P,JP4,1,A*
G04 #@! TO.N,/MODBUS_A_NT*
X40640000Y7620000D03*
G04 #@! TO.P,JP4,2,B*
G04 #@! TO.N,Net-(JP4-B)*
X39340000Y7620000D03*
G04 #@! TD*
D34*
G04 #@! TO.P,C5,1*
G04 #@! TO.N,+5V*
X83527500Y25400000D03*
G04 #@! TO.P,C5,2*
G04 #@! TO.N,GND*
X86652500Y25400000D03*
G04 #@! TD*
D46*
G04 #@! TO.P,C8,1*
G04 #@! TO.N,+3V3*
X24130000Y37122500D03*
G04 #@! TO.P,C8,2*
G04 #@! TO.N,GND*
X24130000Y33997500D03*
G04 #@! TD*
D30*
G04 #@! TO.P,R14,1*
G04 #@! TO.N,+3V3*
X39650000Y21590000D03*
G04 #@! TO.P,R14,2*
G04 #@! TO.N,/PB7*
X36550000Y21590000D03*
G04 #@! TD*
D33*
G04 #@! TO.P,D6,1,K*
G04 #@! TO.N,+3V3*
X66420000Y39370000D03*
G04 #@! TO.P,D6,2,A*
G04 #@! TO.N,Net-(D6-A)*
X63120000Y39370000D03*
G04 #@! TD*
D47*
G04 #@! TO.P,U5,1,~{CS}*
G04 #@! TO.N,Net-(U5-~{CS})*
X41275000Y40725000D03*
G04 #@! TO.P,U5,2,SO/SIO1*
G04 #@! TO.N,Net-(U5-SO{slash}SIO1)*
X42545000Y40725000D03*
G04 #@! TO.P,U5,3,~{WP}/SIO2*
G04 #@! TO.N,+3V3*
X43815000Y40725000D03*
G04 #@! TO.P,U5,4,GND*
G04 #@! TO.N,GND*
X45085000Y40725000D03*
G04 #@! TO.P,U5,5,SI/SIO0*
G04 #@! TO.N,/MOSI*
X45085000Y35475000D03*
G04 #@! TO.P,U5,6,SCLK*
G04 #@! TO.N,/PA5*
X43815000Y35475000D03*
G04 #@! TO.P,U5,7,~{HOLD}/SIO3*
G04 #@! TO.N,+3V3*
X42545000Y35475000D03*
G04 #@! TO.P,U5,8,VCC*
X41275000Y35475000D03*
G04 #@! TD*
D32*
G04 #@! TO.P,R16,1*
G04 #@! TO.N,+3V3*
X39370000Y46000000D03*
G04 #@! TO.P,R16,2*
G04 #@! TO.N,Net-(U5-~{CS})*
X39370000Y42900000D03*
G04 #@! TD*
D30*
G04 #@! TO.P,R15,1*
G04 #@! TO.N,+3V3*
X15520000Y53340000D03*
G04 #@! TO.P,R15,2*
G04 #@! TO.N,Net-(R15-Pad2)*
X12420000Y53340000D03*
G04 #@! TD*
D34*
G04 #@! TO.P,C11,1*
G04 #@! TO.N,+3V3*
X41617500Y46990000D03*
G04 #@! TO.P,C11,2*
G04 #@! TO.N,GND*
X44742500Y46990000D03*
G04 #@! TD*
D25*
G04 #@! TO.P,R8,1*
G04 #@! TO.N,Net-(D3-K)*
X22580000Y41910000D03*
G04 #@! TO.P,R8,2*
G04 #@! TO.N,/PA10*
X25680000Y41910000D03*
G04 #@! TD*
D48*
G04 #@! TO.P,J5,1,VBUS*
G04 #@! TO.N,Net-(D7-K)*
X85688000Y19080000D03*
G04 #@! TO.P,J5,5,GND*
G04 #@! TO.N,GND*
X85688000Y16480000D03*
D49*
G04 #@! TO.P,J5,6,Shield*
X88538000Y21530000D03*
D50*
X88538000Y18930000D03*
X88538000Y16630000D03*
D49*
X88538000Y14030000D03*
G04 #@! TD*
D31*
G04 #@! TO.P,C4,1*
G04 #@! TO.N,+3V3*
X3810000Y12407500D03*
G04 #@! TO.P,C4,2*
G04 #@! TO.N,GND*
X3810000Y15532500D03*
G04 #@! TD*
G04 #@! TO.P,C13,1*
G04 #@! TO.N,+3V3*
X25400000Y8597500D03*
G04 #@! TO.P,C13,2*
G04 #@! TO.N,GND*
X25400000Y11722500D03*
G04 #@! TD*
D32*
G04 #@! TO.P,R24,1*
G04 #@! TO.N,+3V3*
X36830000Y10440000D03*
G04 #@! TO.P,R24,2*
G04 #@! TO.N,Net-(JP4-B)*
X36830000Y7340000D03*
G04 #@! TD*
G04 #@! TO.P,NT7,1,1*
G04 #@! TO.N,Net-(D14-K)*
X80010000Y39650000D03*
G04 #@! TO.P,NT7,2,2*
G04 #@! TO.N,+5V*
X80010000Y36550000D03*
G04 #@! TD*
D51*
G04 #@! TO.N,GND*
X30480000Y38100000D03*
X30480000Y11430000D03*
X72390000Y3810000D03*
X30480000Y35560000D03*
X30480000Y58699500D03*
X58420000Y22567500D03*
X58420000Y20320000D03*
X58420000Y57150000D03*
G04 #@! TO.N,+3V3*
X39370000Y10160000D03*
X31750000Y8890000D03*
X36830000Y52070000D03*
X31750000Y40640000D03*
X44450000Y52070000D03*
X39370000Y17780000D03*
G04 #@! TO.N,/VBAT*
X21590000Y5080000D03*
X49530000Y5080000D03*
G04 #@! TO.N,/MODBUS_DI*
X46990000Y44450000D03*
X46990000Y20320000D03*
G04 #@! TO.N,/MODBUS_RO*
X44450000Y49530000D03*
X44450000Y24130000D03*
G04 #@! TD*
D52*
G04 #@! TO.N,Net-(BT1-+)*
X16510000Y5080000D02*
X16510000Y6250000D01*
X13970000Y3810000D02*
X13970000Y6220000D01*
X15240000Y3810000D02*
X16510000Y5080000D01*
X13970000Y3810000D02*
X15240000Y3810000D01*
G04 #@! TO.N,GND*
X15750000Y32091346D02*
X15324327Y31665673D01*
X24130000Y33997500D02*
X21882500Y33997500D01*
X30480000Y58699500D02*
X30592500Y58812000D01*
X24130000Y6350000D02*
X22860000Y7620000D01*
X21590000Y34290000D02*
X15750000Y34290000D01*
D53*
X39662500Y15240000D02*
X39370000Y15532500D01*
D52*
X59690000Y58420000D02*
X72390000Y58420000D01*
X22860000Y10160000D02*
X24422500Y11722500D01*
X81280000Y49530000D02*
X86360000Y49530000D01*
X87922500Y40640000D02*
X87922500Y38100000D01*
X87630000Y8890000D02*
X85090000Y8890000D01*
X42900000Y54330000D02*
X43180000Y54610000D01*
X72390000Y1905000D02*
X68580000Y1905000D01*
X88538000Y14030000D02*
X88538000Y21530000D01*
X41245000Y17407500D02*
X39370000Y15532500D01*
X62522500Y24422500D02*
X62522500Y25400000D01*
X87390000Y28600000D02*
X88290000Y28600000D01*
D53*
X4152500Y15875000D02*
X6780000Y15875000D01*
D52*
X42900000Y26670000D02*
X41245000Y25015000D01*
X63540000Y27900000D02*
X64770000Y26670000D01*
D53*
X87060000Y42545000D02*
X88265000Y42545000D01*
D52*
X49530000Y54610000D02*
X55880000Y54610000D01*
X30480000Y36830000D02*
X30480000Y38100000D01*
X24130000Y33997500D02*
X25107500Y33997500D01*
X88900000Y29210000D02*
X88900000Y41617500D01*
D53*
X85688000Y16480000D02*
X88388000Y16480000D01*
X16080000Y14605000D02*
X16080000Y19685000D01*
X46355000Y13613503D02*
X44728503Y15240000D01*
D52*
X63500000Y25400000D02*
X64770000Y26670000D01*
X30592500Y58812000D02*
X37708000Y58812000D01*
D53*
X16080000Y21700000D02*
X13970000Y23810000D01*
X84550000Y16480000D02*
X83885000Y17145000D01*
D52*
X37708000Y58812000D02*
X39662500Y56857500D01*
X39662500Y56857500D02*
X39662500Y54610000D01*
X86360000Y49530000D02*
X87630000Y49530000D01*
D53*
X3810000Y15532500D02*
X4152500Y15875000D01*
D52*
X64770000Y26670000D02*
X68411346Y26670000D01*
X88538000Y14030000D02*
X88538000Y11430000D01*
X88900000Y29210000D02*
X88538000Y28848000D01*
D53*
X6780000Y15875000D02*
X6780000Y19685000D01*
D52*
X69745000Y22860000D02*
X69850000Y22965000D01*
X10160000Y46990000D02*
X10160000Y50650000D01*
X68411346Y26670000D02*
X69745000Y25336346D01*
X88900000Y41910000D02*
X88900000Y41617500D01*
X75920000Y57430000D02*
X76200000Y57150000D01*
X27940000Y36830000D02*
X30480000Y36830000D01*
X58420000Y22567500D02*
X60667500Y22567500D01*
X55880000Y55880000D02*
X55880000Y57150000D01*
X78740000Y49530000D02*
X81280000Y49530000D01*
X43180000Y54610000D02*
X47282500Y54610000D01*
X7620000Y31750000D02*
X7620000Y45720000D01*
D53*
X76200000Y57150000D02*
X78170000Y57150000D01*
D52*
X27940000Y11430000D02*
X30480000Y11430000D01*
X15750000Y34290000D02*
X15750000Y37340000D01*
X20320000Y38610000D02*
X17780000Y38610000D01*
X25107500Y33997500D02*
X27940000Y36830000D01*
X72390000Y3810000D02*
X72390000Y1905000D01*
X7620000Y45720000D02*
X8890000Y46990000D01*
X88290000Y28600000D02*
X88900000Y29210000D01*
X21882500Y33997500D02*
X21590000Y34290000D01*
X63540000Y27900000D02*
X63540000Y31115000D01*
X80010000Y57150000D02*
X81280000Y55880000D01*
X25692500Y11430000D02*
X25400000Y11722500D01*
X76200000Y57150000D02*
X80010000Y57150000D01*
X55880000Y57150000D02*
X58420000Y57150000D01*
X88538000Y11430000D02*
X88538000Y9798000D01*
X49530000Y54610000D02*
X49530000Y57150000D01*
D53*
X6780000Y19685000D02*
X10905000Y23810000D01*
D52*
X30200000Y6350000D02*
X24130000Y6350000D01*
X13970000Y23810000D02*
X13970000Y30311346D01*
X86652500Y25400000D02*
X88538000Y25400000D01*
X88538000Y9798000D02*
X87630000Y8890000D01*
X88900000Y48260000D02*
X88900000Y41910000D01*
X55880000Y54610000D02*
X55880000Y55880000D01*
X17780000Y40260000D02*
X17780000Y38610000D01*
X15324327Y31665673D02*
X13970000Y30311346D01*
D53*
X10905000Y23810000D02*
X13970000Y23810000D01*
D52*
X9058654Y30311346D02*
X13970000Y30311346D01*
X80067349Y3810000D02*
X78162349Y1905000D01*
X73660000Y57150000D02*
X76200000Y57150000D01*
D53*
X45085000Y40725000D02*
X45085000Y44107500D01*
D52*
X24422500Y11722500D02*
X25400000Y11722500D01*
D53*
X88388000Y16480000D02*
X88538000Y16630000D01*
D52*
X67310000Y3175000D02*
X66645000Y3175000D01*
X39662500Y54610000D02*
X43180000Y54610000D01*
X87630000Y49530000D02*
X88900000Y48260000D01*
X44742500Y44450000D02*
X44742500Y46990000D01*
X10160000Y46990000D02*
X8890000Y46990000D01*
X30480000Y35560000D02*
X30480000Y36830000D01*
X34290000Y11430000D02*
X38392500Y15532500D01*
X44742500Y46990000D02*
X42900000Y48832500D01*
X38392500Y15532500D02*
X39370000Y15532500D01*
D53*
X44728503Y15240000D02*
X39662500Y15240000D01*
X78170000Y57150000D02*
X78740000Y56580000D01*
D52*
X17020000Y38610000D02*
X17780000Y38610000D01*
X78162349Y1905000D02*
X72390000Y1905000D01*
X58420000Y57150000D02*
X59690000Y58420000D01*
D53*
X85688000Y16480000D02*
X84550000Y16480000D01*
X45085000Y44107500D02*
X44742500Y44450000D01*
X16080000Y19685000D02*
X16080000Y21700000D01*
D52*
X27940000Y11430000D02*
X25692500Y11430000D01*
X68580000Y1905000D02*
X67310000Y3175000D01*
X49530000Y57150000D02*
X55880000Y57150000D01*
X49530000Y54610000D02*
X47282500Y54610000D01*
X69745000Y25336346D02*
X69745000Y22860000D01*
X58420000Y22567500D02*
X58420000Y20320000D01*
X15750000Y37340000D02*
X17020000Y38610000D01*
X60667500Y22567500D02*
X62522500Y24422500D01*
X42900000Y48832500D02*
X42900000Y54330000D01*
X62522500Y25400000D02*
X63500000Y25400000D01*
X41245000Y25015000D02*
X41245000Y17407500D01*
X22860000Y7620000D02*
X22860000Y10160000D01*
X88900000Y41617500D02*
X87922500Y40640000D01*
X88538000Y28848000D02*
X88538000Y25400000D01*
D53*
X46355000Y12665000D02*
X46355000Y13613503D01*
D52*
X30480000Y11430000D02*
X34290000Y11430000D01*
D53*
X88265000Y42545000D02*
X88900000Y41910000D01*
D52*
X47282500Y54610000D02*
X46990000Y54902500D01*
X72390000Y58420000D02*
X73660000Y57150000D01*
X85090000Y8890000D02*
X85090000Y8832651D01*
X15750000Y34290000D02*
X15750000Y32091346D01*
X7620000Y31750000D02*
X9058654Y30311346D01*
X81280000Y55880000D02*
X81280000Y49530000D01*
X88538000Y25400000D02*
X88538000Y21530000D01*
X85090000Y8832651D02*
X80067349Y3810000D01*
D53*
G04 #@! TO.N,+3V3*
X3810000Y12407500D02*
X4152500Y12065000D01*
D52*
X31750000Y40640000D02*
X30480000Y40640000D01*
X24130000Y39370000D02*
X24130000Y46990000D01*
D53*
X41275000Y35475000D02*
X41275000Y33655000D01*
D52*
X17780000Y50797208D02*
X17780000Y52070000D01*
X37807500Y12407500D02*
X39370000Y12407500D01*
D53*
X42545000Y35475000D02*
X42545000Y33655000D01*
X4152500Y12065000D02*
X6780000Y12065000D01*
D52*
X39650000Y26390000D02*
X39650000Y24130000D01*
X36830000Y10440000D02*
X36830000Y8890000D01*
X57150000Y52070000D02*
X55880000Y52070000D01*
X41617500Y44450000D02*
X41617500Y45720000D01*
X30480000Y40640000D02*
X29210000Y39370000D01*
X41617500Y45720000D02*
X41617500Y46990000D01*
X27940000Y8890000D02*
X34290000Y8890000D01*
D53*
X43815000Y42252500D02*
X41617500Y44450000D01*
D52*
X66320000Y41910000D02*
X68580000Y41910000D01*
X84797500Y38100000D02*
X84797500Y36830000D01*
X20040000Y36830000D02*
X21590000Y36830000D01*
X10840000Y1860000D02*
X8890000Y3810000D01*
X68580000Y55711346D02*
X67776346Y56515000D01*
X36830000Y11430000D02*
X37807500Y12407500D01*
X68580000Y52070000D02*
X68580000Y39370000D01*
X64135000Y54610000D02*
X59690000Y54610000D01*
D53*
X42545000Y12665000D02*
X39627500Y12665000D01*
D52*
X36830000Y33823654D02*
X36960000Y33693654D01*
X29210000Y39370000D02*
X27940000Y39370000D01*
X41910000Y33020000D02*
X37633654Y33020000D01*
X17780000Y53340000D02*
X17780000Y57150000D01*
X39370000Y46000000D02*
X41337500Y46000000D01*
X5080000Y8890000D02*
X3810000Y10160000D01*
X34290000Y8890000D02*
X36830000Y8890000D01*
X39650000Y21590000D02*
X39650000Y24130000D01*
X68580000Y52070000D02*
X68580000Y55711346D01*
X84797500Y38100000D02*
X84797500Y40640000D01*
X24130000Y46990000D02*
X25780000Y46990000D01*
X15520000Y53340000D02*
X17780000Y53340000D01*
X78780000Y38100000D02*
X77150000Y36470000D01*
D53*
X41275000Y33655000D02*
X41910000Y33020000D01*
D52*
X22860000Y49530000D02*
X19047208Y49530000D01*
D53*
X43815000Y40725000D02*
X43815000Y42252500D01*
X39627500Y12665000D02*
X39370000Y12407500D01*
D52*
X68580000Y35728654D02*
X70018654Y34290000D01*
X8890000Y3810000D02*
X8890000Y6350000D01*
X67776346Y56515000D02*
X66040000Y56515000D01*
X70018654Y34290000D02*
X70130000Y34290000D01*
D53*
X42545000Y33655000D02*
X41910000Y33020000D01*
D52*
X27940000Y39370000D02*
X24130000Y39370000D01*
X31750000Y8890000D02*
X31750000Y5080000D01*
X44742500Y51777500D02*
X44450000Y52070000D01*
D53*
X75880000Y38432500D02*
X75880000Y37740000D01*
D52*
X24130000Y39370000D02*
X24130000Y37122500D01*
X36830000Y29210000D02*
X39650000Y26390000D01*
X28530000Y1860000D02*
X10840000Y1860000D01*
X49530000Y52070000D02*
X47282500Y52070000D01*
X19047208Y49530000D02*
X17780000Y50797208D01*
X59690000Y54610000D02*
X57150000Y52070000D01*
X24130000Y37122500D02*
X21882500Y37122500D01*
X73065000Y34290000D02*
X73700000Y33655000D01*
X31750000Y5080000D02*
X28530000Y1860000D01*
X25692500Y8890000D02*
X25400000Y8597500D01*
X24130000Y46990000D02*
X24130000Y48260000D01*
D54*
X85090000Y28600000D02*
X85090000Y34900000D01*
D53*
X75880000Y37740000D02*
X77150000Y36470000D01*
D52*
X84797500Y38100000D02*
X78780000Y38100000D01*
X66040000Y56515000D02*
X64135000Y54610000D01*
X37185000Y46000000D02*
X36830000Y46355000D01*
X68580000Y39370000D02*
X68580000Y35728654D01*
X6350000Y8890000D02*
X5080000Y8890000D01*
X36830000Y33823654D02*
X36830000Y29210000D01*
X41337500Y46000000D02*
X41617500Y45720000D01*
X24130000Y37122500D02*
X24422500Y37122500D01*
X74335000Y33655000D02*
X77150000Y36470000D01*
X84797500Y35192500D02*
X85090000Y34900000D01*
X17780000Y53340000D02*
X17780000Y52070000D01*
X39370000Y46000000D02*
X37185000Y46000000D01*
X8890000Y6350000D02*
X6350000Y8890000D01*
X19050000Y35840000D02*
X20040000Y36830000D01*
X3810000Y10160000D02*
X3810000Y12407500D01*
X39650000Y18060000D02*
X39370000Y17780000D01*
X39370000Y12407500D02*
X39370000Y10160000D01*
X49530000Y52070000D02*
X55880000Y52070000D01*
X73700000Y33655000D02*
X74335000Y33655000D01*
X70130000Y34290000D02*
X73065000Y34290000D01*
X24130000Y48260000D02*
X22860000Y49530000D01*
X46990000Y51777500D02*
X44742500Y51777500D01*
X47282500Y52070000D02*
X46990000Y51777500D01*
X27940000Y8890000D02*
X25692500Y8890000D01*
X36830000Y46355000D02*
X36830000Y33823654D01*
X37633654Y33020000D02*
X36960000Y33693654D01*
X36830000Y52070000D02*
X36830000Y46355000D01*
X84797500Y36830000D02*
X84797500Y35192500D01*
X66420000Y39370000D02*
X68580000Y39370000D01*
X36830000Y10440000D02*
X36830000Y11430000D01*
X21882500Y37122500D02*
X21590000Y36830000D01*
X39650000Y21590000D02*
X39650000Y18060000D01*
G04 #@! TO.N,+5V*
X78700000Y35240000D02*
X78700000Y33655000D01*
X78700000Y35240000D02*
X80010000Y36550000D01*
X83527500Y23837500D02*
X81280000Y21590000D01*
D53*
X79792500Y19050000D02*
X79792500Y20737500D01*
D52*
X83820000Y13970000D02*
X81280000Y16510000D01*
X75067349Y3810000D02*
X77470000Y3810000D01*
X82790000Y26137500D02*
X83527500Y25400000D01*
X83820000Y10160000D02*
X83820000Y13970000D01*
X77470000Y3810000D02*
X83820000Y10160000D01*
D53*
X81280000Y16510000D02*
X79792500Y17997500D01*
X79792500Y17997500D02*
X79792500Y19050000D01*
X79792500Y20737500D02*
X80645000Y21590000D01*
D52*
X79945000Y28600000D02*
X78700000Y29845000D01*
X82790000Y28600000D02*
X82790000Y26137500D01*
X78700000Y29845000D02*
X78700000Y33655000D01*
X83527500Y23837500D02*
X83527500Y25400000D01*
X81280000Y21590000D02*
X80645000Y21590000D01*
X82790000Y28600000D02*
X79945000Y28600000D01*
G04 #@! TO.N,/BTN_UMOUNT*
X25680000Y52070000D02*
X27940000Y52070000D01*
X36537500Y54317500D02*
X36537500Y54610000D01*
X27940000Y52070000D02*
X34290000Y52070000D01*
X34290000Y52070000D02*
X36537500Y54317500D01*
D53*
G04 #@! TO.N,Net-(D1-K)*
X78170000Y54610000D02*
X78740000Y55180000D01*
D52*
X70130000Y54610000D02*
X76200000Y54610000D01*
D53*
X76200000Y54610000D02*
X78170000Y54610000D01*
D52*
G04 #@! TO.N,/MODBUS_VP*
X67310000Y29885000D02*
X68540000Y31115000D01*
X71755000Y27900000D02*
X73700000Y29845000D01*
X67310000Y28220000D02*
X67310000Y29885000D01*
X72285000Y21590000D02*
X71755000Y22120000D01*
X68540000Y31115000D02*
X72430000Y31115000D01*
X72430000Y31115000D02*
X73700000Y29845000D01*
X71755000Y22120000D02*
X71755000Y27900000D01*
G04 #@! TO.N,/MODBUS_A*
X76200000Y19050000D02*
X72285000Y19050000D01*
X81560051Y11912740D02*
X81560051Y13689949D01*
X72130000Y7620000D02*
X77267311Y7620000D01*
X69085000Y4575000D02*
X72130000Y7620000D01*
X61875000Y5080000D02*
X62510000Y4445000D01*
X77267311Y7620000D02*
X81560051Y11912740D01*
X62510000Y4445000D02*
X63500000Y4445000D01*
X81560051Y13689949D02*
X76200000Y19050000D01*
X63630000Y4575000D02*
X69085000Y4575000D01*
X63500000Y4445000D02*
X63630000Y4575000D01*
G04 #@! TO.N,/MODBUS_B*
X60325000Y3175000D02*
X60325000Y14605000D01*
X62230000Y16510000D02*
X64770000Y16510000D01*
X59375000Y2225000D02*
X59280000Y2130000D01*
X45850000Y2130000D02*
X59280000Y2130000D01*
X64770000Y16510000D02*
X66040000Y17780000D01*
X42900000Y5080000D02*
X45850000Y2130000D01*
X59280000Y2130000D02*
X60325000Y3175000D01*
X60325000Y14605000D02*
X62230000Y16510000D01*
X66040000Y17780000D02*
X69745000Y17780000D01*
X43180000Y5360000D02*
X42900000Y5080000D01*
X42900000Y5080000D02*
X40740000Y5080000D01*
X64770000Y2225000D02*
X59375000Y2225000D01*
X43180000Y7340000D02*
X43180000Y5360000D01*
G04 #@! TO.N,/VBAT*
X49530000Y5080000D02*
X49530000Y8890000D01*
X49530000Y8890000D02*
X55880000Y8890000D01*
X18920000Y7750000D02*
X16510000Y7750000D01*
X21590000Y5080000D02*
X18920000Y7750000D01*
G04 #@! TO.N,/PC13*
X49530000Y11430000D02*
X55880000Y11430000D01*
G04 #@! TO.N,/DCF77_~{PON}*
X19050000Y32740000D02*
X19050000Y30480000D01*
X27940000Y29210000D02*
X34290000Y29210000D01*
X20320000Y29210000D02*
X21590000Y29210000D01*
X19050000Y30480000D02*
X20320000Y29210000D01*
X21590000Y29210000D02*
X27940000Y29210000D01*
G04 #@! TO.N,/DCF77_DATA*
X27940000Y31750000D02*
X34290000Y31750000D01*
X21590000Y31750000D02*
X27940000Y31750000D01*
G04 #@! TO.N,/PA4*
X40995000Y29210000D02*
X38735000Y31470000D01*
X49530000Y29210000D02*
X40995000Y29210000D01*
X49530000Y29210000D02*
X55880000Y29210000D01*
D53*
G04 #@! TO.N,/PA5*
X44450000Y31750000D02*
X49530000Y31750000D01*
X43815000Y32385000D02*
X44450000Y31750000D01*
X43815000Y35475000D02*
X43815000Y32385000D01*
D52*
X49530000Y31750000D02*
X55880000Y31750000D01*
G04 #@! TO.N,/MISO*
X49530000Y34290000D02*
X55880000Y34290000D01*
X48488000Y34290000D02*
X47498000Y35280000D01*
X49530000Y34290000D02*
X48488000Y34290000D01*
G04 #@! TO.N,/MOSI*
X49530000Y36830000D02*
X55880000Y36830000D01*
D53*
X45085000Y36195000D02*
X45720000Y36830000D01*
X45085000Y35475000D02*
X45085000Y36195000D01*
X49530000Y36830000D02*
X45720000Y36830000D01*
D52*
G04 #@! TO.N,/PB0*
X49530000Y39370000D02*
X55880000Y39370000D01*
X55880000Y39370000D02*
X60960000Y39370000D01*
G04 #@! TO.N,/PB1*
X60960000Y41910000D02*
X55880000Y41910000D01*
X49530000Y41910000D02*
X55880000Y41910000D01*
D53*
G04 #@! TO.N,/MODBUS_DI*
X46355000Y17815000D02*
X46355000Y19685000D01*
D52*
X49530000Y44450000D02*
X46990000Y44450000D01*
D53*
X46355000Y19685000D02*
X46990000Y20320000D01*
D52*
X49530000Y44450000D02*
X55880000Y44450000D01*
D53*
G04 #@! TO.N,/MODBUS_RO*
X42545000Y17815000D02*
X42545000Y20955000D01*
X44450000Y22860000D02*
X44450000Y24130000D01*
D52*
X45720000Y49530000D02*
X48260000Y46990000D01*
X44450000Y49530000D02*
X45720000Y49530000D01*
D53*
X42545000Y20955000D02*
X44450000Y22860000D01*
D52*
X49530000Y46990000D02*
X55880000Y46990000D01*
X48260000Y46990000D02*
X49530000Y46990000D01*
G04 #@! TO.N,/NRST*
X49530000Y49530000D02*
X55880000Y49530000D01*
G04 #@! TO.N,Net-(J3-TX)*
X11430000Y39370000D02*
X10160000Y39370000D01*
X12420000Y40360000D02*
X11430000Y39370000D01*
X12420000Y41910000D02*
X12420000Y40360000D01*
G04 #@! TO.N,Net-(J3-RX)*
X11362081Y36830000D02*
X13970000Y39437919D01*
X13970000Y43114874D02*
X12634874Y44450000D01*
X12634874Y44450000D02*
X12420000Y44450000D01*
X10160000Y36830000D02*
X11362081Y36830000D01*
X13970000Y39437919D02*
X13970000Y43114874D01*
G04 #@! TO.N,/5V_STM*
X27940000Y13970000D02*
X34290000Y13970000D01*
G04 #@! TO.N,/PB9*
X27940000Y16510000D02*
X34290000Y16510000D01*
G04 #@! TO.N,/PB8*
X27940000Y19050000D02*
X34290000Y19050000D01*
D53*
G04 #@! TO.N,/PB7*
X17178503Y12065000D02*
X19050000Y13936497D01*
D52*
X34290000Y21590000D02*
X36550000Y21590000D01*
D53*
X19050000Y13936497D02*
X19050000Y20320000D01*
X20320000Y21590000D02*
X27940000Y21590000D01*
X19050000Y20320000D02*
X20320000Y21590000D01*
D52*
X27940000Y21590000D02*
X34290000Y21590000D01*
D53*
X16080000Y12065000D02*
X17178503Y12065000D01*
D52*
G04 #@! TO.N,/PB6*
X26390000Y24130000D02*
X25400000Y23140000D01*
X27940000Y24130000D02*
X34290000Y24130000D01*
X34290000Y24130000D02*
X36550000Y24130000D01*
X27940000Y24130000D02*
X26390000Y24130000D01*
G04 #@! TO.N,/ONEWIRE*
X55880000Y26670000D02*
X57630000Y28420000D01*
X57630000Y28420000D02*
X57630000Y33331346D01*
X67030000Y34290000D02*
X67030000Y36830000D01*
X58588654Y34290000D02*
X67030000Y34290000D01*
X57630000Y33331346D02*
X58588654Y34290000D01*
X49530000Y26670000D02*
X55880000Y26670000D01*
G04 #@! TO.N,/PA15*
X27940000Y34290000D02*
X28790000Y33440000D01*
X33440000Y33440000D02*
X34290000Y34290000D01*
X28790000Y33440000D02*
X33440000Y33440000D01*
G04 #@! TO.N,/PA10*
X28790000Y42760000D02*
X33440000Y42760000D01*
X33440000Y42760000D02*
X34290000Y41910000D01*
X27940000Y41910000D02*
X28790000Y42760000D01*
X25680000Y41910000D02*
X27940000Y41910000D01*
G04 #@! TO.N,/PA9*
X25680000Y44450000D02*
X27940000Y44450000D01*
X27940000Y44450000D02*
X34290000Y44450000D01*
G04 #@! TO.N,/PA8*
X27940000Y46990000D02*
X34290000Y46990000D01*
G04 #@! TO.N,/PB15*
X27940000Y49530000D02*
X34290000Y49530000D01*
G04 #@! TO.N,/LED_PULSE*
X25680000Y54610000D02*
X27940000Y54610000D01*
X27940000Y54610000D02*
X34290000Y54610000D01*
G04 #@! TO.N,/LED_STATUS*
X25680000Y57150000D02*
X27940000Y57150000D01*
X27940000Y57150000D02*
X34290000Y57150000D01*
G04 #@! TO.N,Net-(J6-Pin_1)*
X64770000Y8890000D02*
X67205000Y8890000D01*
X67205000Y8890000D02*
X72285000Y13970000D01*
G04 #@! TO.N,Net-(J6-Pin_2)*
X65935000Y11430000D02*
X69745000Y15240000D01*
X64770000Y11430000D02*
X65935000Y11430000D01*
G04 #@! TO.N,Net-(J6-Pin_3)*
X62230000Y11430000D02*
X64770000Y13970000D01*
X62230000Y7930000D02*
X62230000Y11430000D01*
X67870887Y6350000D02*
X63810000Y6350000D01*
X74085000Y12564113D02*
X67870887Y6350000D01*
X63810000Y6350000D02*
X62230000Y7930000D01*
X74085000Y15982792D02*
X74085000Y12564113D01*
X73557792Y16510000D02*
X74085000Y15982792D01*
X72285000Y16510000D02*
X73557792Y16510000D01*
G04 #@! TO.N,Net-(J6-Pin_6)*
X66040000Y20320000D02*
X69745000Y20320000D01*
X64770000Y21590000D02*
X66040000Y20320000D01*
G04 #@! TO.N,Earth*
X74190000Y24765000D02*
X75585000Y26160000D01*
X73305000Y24765000D02*
X74190000Y24765000D01*
G04 #@! TO.N,/onewire/ONEWIRE_5V*
X76200000Y42900000D02*
X74930000Y42900000D01*
X79250000Y41910000D02*
X77190000Y41910000D01*
X74930000Y40307500D02*
X74930000Y42900000D01*
X77190000Y41910000D02*
X76200000Y42900000D01*
X74930000Y42900000D02*
X73660000Y42900000D01*
D53*
G04 #@! TO.N,Net-(JP2-B)*
X13970000Y12700000D02*
X13970000Y7620000D01*
X14605000Y13335000D02*
X13970000Y12700000D01*
X16080000Y13335000D02*
X14605000Y13335000D01*
D52*
G04 #@! TO.N,Net-(R5-Pad1)*
X60960000Y44450000D02*
X63220000Y44450000D01*
G04 #@! TO.N,Net-(R6-Pad1)*
X60960000Y46990000D02*
X63220000Y46990000D01*
G04 #@! TO.N,Net-(R9-Pad1)*
X60960000Y49530000D02*
X63220000Y49530000D01*
G04 #@! TO.N,Net-(R10-Pad1)*
X60960000Y52070000D02*
X63220000Y52070000D01*
G04 #@! TO.N,Net-(R15-Pad2)*
X22691346Y52070000D02*
X22580000Y52070000D01*
X16460000Y58950000D02*
X23600000Y58950000D01*
X24130000Y53508654D02*
X22691346Y52070000D01*
X24130000Y58420000D02*
X24130000Y53508654D01*
X12420000Y54910000D02*
X14660000Y57150000D01*
X12420000Y53340000D02*
X12420000Y54910000D01*
X23600000Y58950000D02*
X24130000Y58420000D01*
X14660000Y57150000D02*
X16460000Y58950000D01*
G04 #@! TO.N,/MODBUS_DE*
X49530000Y21590000D02*
X55880000Y21590000D01*
D53*
X45085000Y21244390D02*
X46000000Y22159390D01*
X43815000Y17815000D02*
X43815000Y19195610D01*
X45085000Y17815000D02*
X45085000Y20465610D01*
D52*
X46000000Y26670000D02*
X46000000Y22159390D01*
D53*
X45085000Y20465610D02*
X45085000Y21244390D01*
X43815000Y19195610D02*
X45085000Y20465610D01*
D52*
X49530000Y21590000D02*
X48960610Y22159390D01*
D53*
X49350000Y21770000D02*
X49530000Y21590000D01*
D52*
X48960610Y22159390D02*
X46000000Y22159390D01*
D53*
G04 #@! TO.N,Net-(U6-B)*
X43815000Y11075000D02*
X43180000Y10440000D01*
X43815000Y12665000D02*
X43815000Y11075000D01*
G04 #@! TO.N,Net-(U6-A)*
X45085000Y11075000D02*
X45720000Y10440000D01*
X45085000Y12665000D02*
X45085000Y11075000D01*
D52*
G04 #@! TO.N,/PB5*
X27940000Y26670000D02*
X34290000Y26670000D01*
G04 #@! TO.N,/PA2*
X59397500Y32447500D02*
X59690000Y32740000D01*
X58127500Y24130000D02*
X59397500Y25400000D01*
X59397500Y25400000D02*
X59397500Y32447500D01*
X55880000Y24130000D02*
X58127500Y24130000D01*
X49530000Y24130000D02*
X55880000Y24130000D01*
D53*
G04 #@! TO.N,Net-(U1-SCL)*
X18415000Y10795000D02*
X20320000Y12700000D01*
X21310000Y20040000D02*
X20320000Y19050000D01*
X18415000Y10795000D02*
X16080000Y10795000D01*
X25400000Y20040000D02*
X21310000Y20040000D01*
X20320000Y12700000D02*
X20320000Y19050000D01*
D52*
G04 #@! TO.N,/PA0*
X49530000Y19050000D02*
X55880000Y19050000D01*
G04 #@! TO.N,Net-(J6-Pin_7)*
X64770000Y24130000D02*
X66320000Y24130000D01*
X66320000Y24130000D02*
X67310000Y25120000D01*
D53*
G04 #@! TO.N,Net-(Q1-S)*
X73980000Y38432500D02*
X73980000Y37785000D01*
X73025000Y36830000D02*
X70130000Y36830000D01*
X73980000Y37785000D02*
X73025000Y36830000D01*
G04 #@! TO.N,Net-(U5-SO{slash}SIO1)*
X43991497Y38380000D02*
X42545000Y39826497D01*
X47498000Y38380000D02*
X43991497Y38380000D01*
X42545000Y39826497D02*
X42545000Y40725000D01*
G04 #@! TO.N,Net-(U5-~{CS})*
X38820000Y40725000D02*
X38735000Y40640000D01*
X41275000Y40725000D02*
X38820000Y40725000D01*
D52*
X38735000Y34570000D02*
X38735000Y40640000D01*
X38735000Y40640000D02*
X38735000Y42265000D01*
X38735000Y42265000D02*
X39370000Y42900000D01*
G04 #@! TO.N,Net-(D11-K)*
X21590000Y54610000D02*
X22580000Y54610000D01*
X20320000Y52070000D02*
X20320000Y53340000D01*
X20320000Y53340000D02*
X21590000Y54610000D01*
G04 #@! TO.N,Net-(D2-K)*
X22480000Y46990000D02*
X22480000Y44550000D01*
X15520000Y44450000D02*
X17780000Y44450000D01*
X17780000Y44450000D02*
X22580000Y44450000D01*
X22480000Y44550000D02*
X22580000Y44450000D01*
X17780000Y43560000D02*
X17780000Y44450000D01*
G04 #@! TO.N,Net-(D3-K)*
X22480000Y39370000D02*
X22480000Y41810000D01*
X22480000Y41810000D02*
X22580000Y41910000D01*
X15520000Y41910000D02*
X22580000Y41910000D01*
G04 #@! TO.N,Net-(D6-A)*
X59690000Y35840000D02*
X61240000Y35840000D01*
X63120000Y41810000D02*
X63220000Y41910000D01*
X66208654Y44450000D02*
X66320000Y44450000D01*
X61240000Y35840000D02*
X63120000Y37720000D01*
X66320000Y53900000D02*
X67030000Y54610000D01*
X66320000Y52070000D02*
X66320000Y53900000D01*
X63220000Y41910000D02*
X63668654Y41910000D01*
X66320000Y52070000D02*
X66320000Y44450000D01*
X63120000Y39370000D02*
X63120000Y41810000D01*
X63668654Y41910000D02*
X66208654Y44450000D01*
X63120000Y37720000D02*
X63120000Y39370000D01*
G04 #@! TO.N,Net-(D14-K)*
X80010000Y39650000D02*
X81560000Y39650000D01*
X77750000Y44450000D02*
X78740000Y44450000D01*
X82550000Y44450000D02*
X86360000Y44450000D01*
X82550000Y41910000D02*
X82550000Y44450000D01*
D53*
X85660000Y42545000D02*
X85660000Y43750000D01*
D52*
X82550000Y40640000D02*
X82550000Y41910000D01*
X76200000Y46000000D02*
X77750000Y44450000D01*
X81560000Y39650000D02*
X82550000Y40640000D01*
X78740000Y44450000D02*
X82550000Y44450000D01*
D53*
X85660000Y43750000D02*
X86360000Y44450000D01*
D52*
G04 #@! TO.N,/MODBUS_A_NT*
X45720000Y7451346D02*
X45720000Y5360000D01*
X44281346Y8890000D02*
X45720000Y7451346D01*
X58775000Y5080000D02*
X58775000Y16865000D01*
X42010000Y8890000D02*
X44281346Y8890000D01*
X58775000Y16865000D02*
X60960000Y19050000D01*
X40740000Y7620000D02*
X42010000Y8890000D01*
X47550000Y3530000D02*
X57225000Y3530000D01*
X60960000Y19050000D02*
X64770000Y19050000D01*
X57225000Y3530000D02*
X58775000Y5080000D01*
X46000000Y5080000D02*
X47550000Y3530000D01*
G04 #@! TO.N,Net-(JP4-B)*
X39060000Y7340000D02*
X39240000Y7520000D01*
X39240000Y7520000D02*
X39240000Y7620000D01*
X36830000Y7340000D02*
X39060000Y7340000D01*
G04 #@! TO.N,Net-(JP5-A)*
X34570000Y5080000D02*
X39240000Y5080000D01*
X33300000Y6350000D02*
X34570000Y5080000D01*
G04 #@! TO.N,Net-(D12-K)*
X22580000Y57150000D02*
X20320000Y57150000D01*
G04 #@! TO.N,Net-(D15-K)*
X78740000Y46990000D02*
X78180000Y47550000D01*
X78180000Y47550000D02*
X75098654Y47550000D01*
X75098654Y47550000D02*
X73660000Y46111346D01*
X73660000Y46111346D02*
X73660000Y46000000D01*
X78740000Y46990000D02*
X86360000Y46990000D01*
D53*
G04 #@! TO.N,Net-(D7-K)*
X82797500Y19080000D02*
X82767500Y19050000D01*
X82485000Y18767500D02*
X82767500Y19050000D01*
X85688000Y19080000D02*
X82797500Y19080000D01*
X82485000Y17145000D02*
X82485000Y18767500D01*
G04 #@! TD*
M02*
